<svg width="200" height="200" viewBox="0 0 200 200" fill="none" xmlns="http://www.w3.org/2000/svg">
<g clip-path="url(#clip0_1_2)">
<rect width="200" height="200" rx="31" fill="url(#paint0_linear_1_2)"/>
<g clip-path="url(#clip1_1_2)">
<path d="M59.9345 60.0253C50.6957 60.0253 43.2 67.5926 43.2 76.9198V133.235C43.2 142.562 50.6957 150.13 59.9345 150.13H110.138H115.716C118.801 150.13 121.294 147.613 121.294 144.498C121.294 141.383 118.801 138.867 115.716 138.867V127.604C118.801 127.604 121.294 125.087 121.294 121.972V65.6568C121.294 62.5419 118.801 60.0253 115.716 60.0253H110.138H59.9345ZM59.9345 127.604H104.56V138.867H59.9345C56.8491 138.867 54.3563 136.35 54.3563 133.235C54.3563 130.12 56.8491 127.604 59.9345 127.604ZM65.5126 85.3671C65.5126 83.8185 66.7677 82.5514 68.3017 82.5514H101.771C103.305 82.5514 104.56 83.8185 104.56 85.3671C104.56 86.9158 103.305 88.1829 101.771 88.1829H68.3017C66.7677 88.1829 65.5126 86.9158 65.5126 85.3671ZM68.3017 93.8144H101.771C103.305 93.8144 104.56 95.0815 104.56 96.6302C104.56 98.1788 103.305 99.4459 101.771 99.4459H68.3017C66.7677 99.4459 65.5126 98.1788 65.5126 96.6302C65.5126 95.0815 66.7677 93.8144 68.3017 93.8144Z" fill="white"/>
</g>
<path d="M129.04 94.54C127.6 94.54 126.56 94.32 125.92 93.88C125.28 93.44 124.88 92.86 124.72 92.14C124.6 91.42 124.54 90.68 124.54 89.92V57.1C124.54 56.34 124.6 55.62 124.72 54.94C124.88 54.26 125.28 53.7 125.92 53.26C126.56 52.82 127.62 52.6 129.1 52.6H141.58C143.22 52.6 144.9 52.9 146.62 53.5C148.34 54.1 149.92 55.02 151.36 56.26C152.8 57.5 153.96 59.04 154.84 60.88C155.72 62.72 156.16 64.9 156.16 67.42C156.16 69.1 155.9 70.72 155.38 72.28C154.9 73.84 154.16 75.28 153.16 76.6C152.16 77.92 150.92 79.06 149.44 80.02C147.96 80.94 146.26 81.6 144.34 82H133.66V89.98C133.66 90.74 133.58 91.48 133.42 92.2C133.26 92.88 132.86 93.44 132.22 93.88C131.58 94.32 130.52 94.54 129.04 94.54ZM154.36 93.34C152.88 94.42 151.7 94.84 150.82 94.6C149.94 94.36 149.02 93.58 148.06 92.26L137.5 77.14L147.76 75.82L155.5 86.92C156.18 87.88 156.6 88.7 156.76 89.38C156.96 90.06 156.86 90.7 156.46 91.3C156.1 91.9 155.4 92.58 154.36 93.34ZM133.66 73H142C142.56 73 143.14 72.9 143.74 72.7C144.34 72.46 144.88 72.12 145.36 71.68C145.84 71.24 146.24 70.66 146.56 69.94C146.88 69.22 147.04 68.36 147.04 67.36C147.04 66.2 146.8 65.2 146.32 64.36C145.88 63.52 145.24 62.88 144.4 62.44C143.56 61.96 142.58 61.72 141.46 61.72H133.66V73Z" fill="white"/>
</g>
<defs>
<linearGradient id="paint0_linear_1_2" x1="100" y1="0" x2="100" y2="200" gradientUnits="userSpaceOnUse">
<stop stop-color="#579BFA"/>
<stop offset="1" stop-color="#1D70E4"/>
</linearGradient>
<clipPath id="clip0_1_2">
<rect width="200" height="200" fill="white"/>
</clipPath>
<clipPath id="clip1_1_2">
<rect width="78.0942" height="90.1043" fill="white" transform="translate(43.2 60.0253)"/>
</clipPath>
</defs>
</svg>
